<mxfile host="app.diagrams.net" modified="2023-09-30T09:22:49.456Z" agent="Mozilla/5.0 (Macintosh; Intel Mac OS X 10_15_7) AppleWebKit/605.1.15 (KHTML, like Gecko) Version/17.0 Safari/605.1.15" version="22.0.0" etag="J7xM-IjweEOlgvcOPUA8" type="github">
  <diagram name="Pagina-1" id="p6LCyOjKT7-Y3hh-nQ9l">
    <mxGraphModel>
      <root>
        <mxCell id="0" />
        <mxCell id="1" parent="0" />
      </root>
    </mxGraphModel>
  </diagram>
</mxfile>
